arm26_arm_motion
version=1
nRows=138
nColumns=3
inDegrees=no
endheader
time	r_elbow_flex	r_shoulder_elev
0.060876	0.83979690	-0.55120045
0.819251	0.85276035	-0.52130377
1.178673	0.85348409	-0.51661691
1.567622	0.85012196	-0.47626410
1.903297	0.84798268	-0.46330000
2.203353	0.84777782	-0.46268498
3.009686	0.84964010	-0.46493610
3.894213	0.85035939	-0.46282810
5.185652	1.01418867	-0.53509178
5.981086	1.41962378	-0.41619710
6.681913	1.56611526	-0.32441631
7.348819	1.64406521	-0.27666871
7.963028	1.64981815	-0.22409438
8.620131	1.48810727	0.21506378
9.222464	1.06038119	0.99326225
9.867457	0.82210353	2.13252207
10.544866	0.82022352	2.15104507
11.208724	0.84182131	2.18052166
11.872944	0.84311231	2.16458914
12.523019	0.84020312	2.13656227
13.123882	0.81335520	1.95964263
13.795414	0.78060143	1.73659444
14.414899	0.75659912	1.56784001
15.042864	0.71465667	1.52122190
15.821872	0.71289155	1.52327710
16.472288	0.71412923	1.51379576
17.099710	0.71500081	1.50035650
17.737503	0.68224297	1.19357407
18.334624	0.68760447	1.19866032
18.990559	0.69021412	1.19845547
19.666357	0.67866166	1.18720155
20.368235	0.59931123	0.66894018
21.097089	0.60024181	0.66038757
21.770179	0.60071243	0.42428387
22.407288	0.60220249	-0.00605830
23.257764	0.58801152	-0.00244193
24.099596	0.51557626	0.21837723
24.817279	0.62860945	0.52335257
25.488331	0.62746512	0.33498156
26.139064	1.09931033	1.75816345
26.798995	1.10107266	1.80704729
27.699695	0.79571038	0.76803216
28.566969	1.22962993	0.56143852
29.404085	1.50925751	0.62023555
30.285704	0.37308862	0.35147606
31.054675	0.97117033	-0.14246358
32.116930	1.18891973	-0.14017170
33.012693	1.12470794	-0.10548045
33.928900	1.12343524	-0.11976941
34.766699	1.11853925	-0.10834749
35.971689	1.11748949	-0.10765533
36.784788	1.10199382	-0.11368310
37.637456	1.05240248	-0.23256540
38.865155	0.95998758	-0.08366254
39.781052	0.99106229	-0.06281039
41.078918	0.89434925	0.01221280
42.108906	0.84613904	0.01693430
42.844132	1.39115000	0.02795550
43.561506	1.56995841	0.02662441
44.302526	1.62374085	0.01558491
45.059666	0.90192454	0.10651530
45.866045	0.77835853	0.10720971
46.613466	0.77093774	0.10963956
47.359885	0.74627342	0.10838250
48.074087	0.74140754	0.10057190
48.845650	0.73579799	0.10599936
49.641665	0.73824527	0.09324851
50.426276	0.73189858	0.09887497
51.460645	0.72627917	0.10184420
52.254277	0.71622547	0.07773041
53.114034	0.71070053	0.08242668
54.031412	0.69848749	0.10284958
54.763246	0.70861138	0.10077827
55.465179	0.70966979	0.09397997
56.229696	0.70254002	0.10229412
56.944619	0.68918651	0.08235675
57.689470	1.30324496	0.41282739
58.411330	1.65146155	0.46602429
59.136390	1.59083644	0.28621571
60.149631	1.32451993	0.46284548
60.875051	1.19738151	0.36613581
61.590982	1.11077023	0.35294769
62.305667	1.82318778	0.50083790
63.035851	2.02322589	0.57216023
63.738922	2.31480110	0.98630713
64.434859	2.38759464	0.94808185
65.152882	2.43707810	0.93295287
65.840642	0.91803176	0.26742369
66.806220	0.73371387	0.18445089
67.725383	0.71838881	0.14837174
68.744992	0.71467119	0.14385707
69.443353	0.71696162	0.12209832
70.174267	0.71733673	0.10891300
70.888845	0.71828686	0.11164769
71.608549	1.38219441	0.09450879
72.350494	1.39750540	0.07305185
73.067592	1.39651822	0.07251454
73.798803	1.40422586	0.07549304
74.502607	1.42462963	0.09217472
75.233814	1.38691462	0.08002379
75.965435	1.28522318	0.09782247
76.711681	1.36740288	0.07445580
77.429109	1.44694780	0.06977146
78.111430	1.42666468	0.04633276
78.778568	1.39432960	0.04282508
79.617071	1.41323976	0.05288519
80.346251	1.41157935	0.05259974
81.063161	1.38145148	0.05782182
81.793425	1.34407643	0.04879027
82.505066	1.34928294	0.04609784
83.218191	1.41165149	0.04351247
83.912941	1.43427210	0.03195762
84.629158	1.41955943	0.04626688
85.328469	1.41467196	0.02593558
86.052336	1.41950008	0.03261202
86.800048	1.41805240	0.03485664
87.669031	1.42564687	0.03395555
88.366878	1.42761385	0.04131596
89.083066	1.42776599	0.05150969
89.873985	1.42684943	0.03328675
90.593241	1.43028220	0.03612613
91.276529	1.43345915	0.03702480
92.003312	1.43455999	0.05345328
92.716518	1.43150629	0.03097641
93.432986	1.43546513	0.03250098
94.164570	1.43708536	0.02897185
94.912274	1.22353813	0.05289397
95.601073	1.12447865	0.03394380
96.303495	1.09828506	0.02691989
97.018873	1.09590475	0.04223925
97.761234	1.13731248	0.04731273
98.444693	1.57222616	0.48949595
99.126094	2.09281451	0.46228902
99.844136	1.97947741	0.20896589
100.561409	1.98170890	0.17239040
101.274865	1.96812929	0.18691056
102.273551	1.99485917	0.21273089
103.572859	0.46580748	0.13429381
